<?xml version="1.0" encoding="UTF-8"?>
<svg width="515px" height="119px" viewBox="0 0 515 119" version="1.1" xmlns="http://www.w3.org/2000/svg" xmlns:xlink="http://www.w3.org/1999/xlink">
    <title>final-option-1</title>
    <defs>
        <linearGradient x1="93.8207334%" y1="100%" x2="6.17926664%" y2="3.16760507e-13%" id="linearGradient-1">
            <stop stop-color="#34B1F0" offset="0%"></stop>
            <stop stop-color="#F52A6E" offset="49.3264647%"></stop>
            <stop stop-color="#FF4A1B" offset="100%"></stop>
        </linearGradient>
    </defs>
    <g id="Page-1" stroke="none" stroke-width="1" fill="none" fill-rule="evenodd">
        <g id="Frame-8" transform="translate(-167, -246)">
            <g id="final-option-1" transform="translate(152, 249)">
                <g id="logo-g">
                    <rect id="Rectangle-6" fill="url(#linearGradient-1)" x="15" y="10" width="88" height="94" rx="1"></rect>
                    <g id="Group" transform="translate(32, 24)" fill="#FFFFFF">
                        <path d="M5.60202924,66.3871774 L13.1038771,44.7455425 L39.8474775,44.7455425 L47.3493254,66.3871774 L53.0000679,66.3871774 L29.1792653,0 L23.8208026,0 L0,66.3871774 L5.60202924,66.3871774 Z M26.5974606,6.58022683 L39.8523099,44.7452305 L13.105358,44.7452305 L26.4026074,6.58022683 L26.5974606,6.58022683 Z" id="Shape" fill-rule="nonzero"></path>
                        <polygon id="Path" points="37.5 28.25 36.3545291 32.1132273 24 66.5 29.5 66.5 40.4921605 34.9225208 40.5 34"></polygon>
                    </g>
                </g>
                <text id="Alphalum" font-family="SFCompactDisplay-Thin, SF Compact Display" font-size="100" font-weight="300" fill="#000000">
                    <tspan x="130" y="92">Alphalum</tspan>
                </text>
            </g>
        </g>
    </g>
</svg>