<?xml version="1.0" encoding="UTF-8"?>
<svg width="625px" height="140px" viewBox="0 0 625 140" version="1.1" xmlns="http://www.w3.org/2000/svg" xmlns:xlink="http://www.w3.org/1999/xlink">
    <title>final-option-3</title>
    <defs>
        <linearGradient x1="107.107633%" y1="50.0784237%" x2="-25.7886203%" y2="49.909443%" id="linearGradient-1">
            <stop stop-color="#34B1F0" offset="0%"></stop>
            <stop stop-color="#F52A6E" offset="49.3264647%"></stop>
            <stop stop-color="#FF2700" offset="100%"></stop>
        </linearGradient>
        <filter x="-11.9%" y="-300.0%" width="123.8%" height="700.0%" filterUnits="objectBoundingBox" id="filter-2">
            <feGaussianBlur stdDeviation="20" in="SourceGraphic"></feGaussianBlur>
        </filter>
    </defs>
    <g id="Page-1" stroke="none" stroke-width="1" fill="none" fill-rule="evenodd">
        <g id="Frame-8" transform="translate(-148, -412)">
            <g id="final-option-3" transform="translate(154, 436)">
                <g id="Group" transform="translate(13, -2)" fill="url(#linearGradient-1)" opacity="0.163886089">
                    <rect id="Rectangle-6" filter="url(#filter-2)" x="41" y="38" width="505" height="20" rx="10"></rect>
                </g>
                <g transform="translate(25, -6)" fill="#000000" fill-rule="nonzero" id="ALPHALUM" opacity="0.900907258">
                    <g transform="translate(9, 17)">
                        <path d="M5.59779109,66.4177002 L13.0939635,44.7661151 L39.8173314,44.7661151 L47.3135039,66.4177002 L52.9599714,66.4177002 L29.1571901,8.52651283e-14 L23.8027813,8.52651283e-14 L-3.55271368e-15,66.4177002 L5.59779109,66.4177002 Z M26.5773386,6.58325223 L39.8221601,44.765803 L13.0954433,44.765803 L26.3826328,6.58325223 L26.5773386,6.58325223 Z M112.161175,61.6494253 L79.6174552,61.6494253 L79.6174552,3.90798505e-13 L74.2992161,3.90798505e-13 L74.2992161,66.5344828 L112.161175,66.5344828 L112.161175,61.6494253 Z M155.477989,3.90798505e-13 L133.229209,3.90798505e-13 L133.229209,66.5344828 L138.547448,66.5344828 L138.547448,39.8132184 L155.477989,39.8132184 C168.407653,39.8132184 176.263034,32.045977 176.263034,19.9310345 C176.263034,7.81609195 168.407653,3.90798505e-13 155.477989,3.90798505e-13 Z M170.798421,19.9310345 C170.798421,30.7758621 164.114029,34.9281609 152.550518,34.9281609 L138.547448,34.9281609 L138.547448,4.88505747 L155.282824,4.88505747 C165.138644,4.88505747 170.798421,10.454023 170.798421,19.9310345 Z M246.610164,66.5344828 L246.610164,3.90798505e-13 L241.291925,3.90798505e-13 L241.291925,33.3610345 L204.210624,33.3610345 L204.210624,3.90798505e-13 L198.892385,3.90798505e-13 L198.892385,66.5344828 L204.210624,66.5344828 L204.210624,38.1972414 L241.291925,38.1972414 L241.291925,66.5344828 L246.610164,66.5344828 Z M273.422362,66.4177002 L280.918535,44.7661151 L307.641902,44.7661151 L315.138075,66.4177002 L320.784542,66.4177002 L296.981761,8.52651283e-14 L291.627352,8.52651283e-14 L267.824571,66.4177002 L273.422362,66.4177002 Z M294.40191,6.58325223 L307.646731,44.765803 L280.920014,44.765803 L294.207204,6.58325223 L294.40191,6.58325223 Z M379.985746,61.6494253 L347.442026,61.6494253 L347.442026,3.90798505e-13 L342.123787,3.90798505e-13 L342.123787,66.5344828 L379.985746,66.5344828 L379.985746,61.6494253 Z M423.790472,63.066092 C411.885423,63.066092 404.908284,55.3965517 404.908284,43.5258621 L404.908284,4.97379915e-14 L399.638836,4.97379915e-14 L399.638836,44.0632184 C399.638836,58.2787356 408.47004,68 423.790472,68 C439.110904,68 447.9909,58.2787356 447.9909,44.0632184 L447.9909,4.97379915e-14 L442.67266,4.97379915e-14 L442.67266,43.5258621 C442.67266,55.4454023 435.744312,63.066092 423.790472,63.066092 Z M480.03695,66.5344828 L480.03695,11.9683908 L480.232114,11.9683908 L502.139356,61.4051724 L507.018475,61.4051724 L528.925717,11.9683908 L529.120882,11.9683908 L529.120882,66.5344828 L534,66.5344828 L534,3.90798505e-13 L528.828134,3.90798505e-13 L504.676498,55.3477011 L504.481333,55.3477011 L480.329697,3.90798505e-13 L475.157831,3.90798505e-13 L475.157831,66.5344828 L480.03695,66.5344828 Z" id="Combined-Shape"></path>
                    </g>
                </g>
            </g>
        </g>
    </g>
</svg>