<?xml version="1.0" encoding="UTF-8"?>
<svg width="543px" height="76px" viewBox="0 0 543 76" version="1.1" xmlns="http://www.w3.org/2000/svg" xmlns:xlink="http://www.w3.org/1999/xlink">
    <title>alphalum-white-logo</title>
    <g id="alphalum-white-logo" stroke="none" fill="none" fill-rule="evenodd" stroke-width="1">
        <g id="final-option-2" transform="translate(0, -12)">
            <rect id="Rectangle-5" x="0" y="0" width="556" height="104"></rect>
            <g id="ALPHALUM" transform="translate(3, 17)" fill="#FFFFFF" fill-rule="nonzero">
                <path d="M5.59779109,66.4177002 L13.0939635,44.7661151 L39.8173314,44.7661151 L47.3135039,66.4177002 L52.9599714,66.4177002 L29.1571901,0 L23.8027813,0 L0,66.4177002 L5.59779109,66.4177002 Z M26.5773386,6.58325223 L39.8221601,44.765803 L13.0954433,44.765803 L26.3826328,6.58325223 L26.5773386,6.58325223 Z" id="Shape"></path>
                <polygon id="Path" points="112.161175 61.6494253 79.6174552 61.6494253 79.6174552 0 74.2992161 0 74.2992161 66.5344828 112.161175 66.5344828"></polygon>
                <path d="M155.477989,0 L133.229209,0 L133.229209,66.5344828 L138.547448,66.5344828 L138.547448,39.8132184 L155.477989,39.8132184 C168.407653,39.8132184 176.263034,32.045977 176.263034,19.9310345 C176.263034,7.81609195 168.407653,0 155.477989,0 Z M170.798421,19.9310345 C170.798421,30.7758621 164.114029,34.9281609 152.550518,34.9281609 L138.547448,34.9281609 L138.547448,4.88505747 L155.282824,4.88505747 C165.138644,4.88505747 170.798421,10.454023 170.798421,19.9310345 Z" id="Shape"></path>
                <polygon id="Path" points="246.610164 66.5344828 246.610164 0 241.291925 0 241.291925 33.3610345 204.210624 33.3610345 204.210624 0 198.892385 0 198.892385 66.5344828 204.210624 66.5344828 204.210624 38.1972414 241.291925 38.1972414 241.291925 66.5344828"></polygon>
                <path d="M273.422362,66.4177002 L280.918535,44.7661151 L307.641902,44.7661151 L315.138075,66.4177002 L320.784542,66.4177002 L296.981761,0 L291.627352,0 L267.824571,66.4177002 L273.422362,66.4177002 Z M294.40191,6.58325223 L307.646731,44.765803 L280.920014,44.765803 L294.207204,6.58325223 L294.40191,6.58325223 Z" id="Shape"></path>
                <polygon id="Path" points="379.985746 61.6494253 347.442026 61.6494253 347.442026 0 342.123787 0 342.123787 66.5344828 379.985746 66.5344828"></polygon>
                <path d="M423.790472,63.066092 C411.885423,63.066092 404.908284,55.3965517 404.908284,43.5258621 L404.908284,0 L399.638836,0 L399.638836,44.0632184 C399.638836,58.2787356 408.47004,68 423.790472,68 C439.110904,68 447.9909,58.2787356 447.9909,44.0632184 L447.9909,0 L442.67266,0 L442.67266,43.5258621 C442.67266,55.4454023 435.744312,63.066092 423.790472,63.066092 Z" id="Path"></path>
                <polygon id="Path" points="480.03695 66.5344828 480.03695 11.9683908 480.232114 11.9683908 502.139356 61.4051724 507.018475 61.4051724 528.925717 11.9683908 529.120882 11.9683908 529.120882 66.5344828 534 66.5344828 534 0 528.828134 0 504.676498 55.3477011 504.481333 55.3477011 480.329697 0 475.157831 0 475.157831 66.5344828"></polygon>
            </g>
        </g>
    </g>
</svg>