<?xml version="1.0" encoding="UTF-8"?>
<svg width="100px" height="100px" viewBox="0 0 100 100" version="1.1" xmlns="http://www.w3.org/2000/svg" xmlns:xlink="http://www.w3.org/1999/xlink">
    <title>alphalum-gradient-mark</title>
    <defs>
        <path d="M0,0 L100,0 L100,100 L0,100 L0,0 Z" id="path-1"></path>
        <filter x="inf%" y="inf%" width="0.0%" height="0.0%" filterUnits="objectBoundingBox" id="filter-2">
            <feGaussianBlur stdDeviation="0" in="SourceGraphic"></feGaussianBlur>
        </filter>
        <linearGradient x1="74.5585966%" y1="100%" x2="-72.5507206%" y2="-11.3807091%" id="linearGradient-3">
            <stop stop-color="#0096FF" offset="0%"></stop>
            <stop stop-color="#FF6677" offset="62.0333705%"></stop>
            <stop stop-color="#FF0000" offset="100%"></stop>
        </linearGradient>
        <filter x="-109.3%" y="0.0%" width="176.9%" height="100.0%" filterUnits="objectBoundingBox" id="filter-4">
            <feGaussianBlur stdDeviation="0" in="SourceGraphic"></feGaussianBlur>
        </filter>
    </defs>
    <g id="alphalum-gradient-mark" stroke="none" fill="none" xlink:href="#path-1" fill-rule="evenodd">
        <use fill="#FFFFFF" xlink:href="#path-1"></use>
        <g id="logo-option-5-2" stroke-width="1" transform="translate(-27, -16)">
            <rect id="Rectangle-6" filter="url(#filter-2)" x="27" y="16" width="100" height="100"></rect>
            <g id="Group" transform="translate(37, 23)" fill="url(#linearGradient-3)">
                <g id="L" transform="translate(49, 0)">
                    <path d="M29.0458984,65.25 L6.22509766,65.1425781 L6.22509766,17 L2.02050781,17 L2.02050781,69 L29,69 L29.0458984,65.25 Z M-42.4549632,69 L-36.3685662,52.0484581 L-14.6709559,52.0484581 L-8.58455882,69 L-4,69 L-23.3262868,17 L-27.6737132,17 L-47,69 L-42.4549632,69 Z M-25.4209559,22.154185 L-14.6670353,52.0482138 L-36.3673647,52.0482138 L-25.5790441,22.154185 L-25.4209559,22.154185 Z" id="Combined-Shape" filter="url(#filter-4)"></path>
                </g>
            </g>
        </g>
    </g>
</svg>